<?xml version="1.0" encoding="utf-8"?>
<!-- Generator: Adobe Illustrator 24.0.1, SVG Export Plug-In . SVG Version: 6.00 Build 0)  -->
<svg version="1.1" id="Capa_1" xmlns="http://www.w3.org/2000/svg" xmlns:xlink="http://www.w3.org/1999/xlink" x="0px" y="0px"
	 viewBox="0 0 512 512" style="enable-background:new 0 0 512 512;" xml:space="preserve">
<style type="text/css">
	.st0{fill:#B78B7A;}
	.st1{fill:#AA7A63;}
	.st2{fill:#FFE07D;}
	.st3{fill:#FFD064;}
	.st4{fill:#595959;}
	.st5{fill:#C6C1C8;}
</style>
<g>
	<g>
		<path class="st0" d="M432.6,394.1H89.9c-4,0-7.3-3.1-7.3-7v-27.9c0-3.8,3.3-7,7.3-7h342.7c4,0,7.3,3.1,7.3,7v27.9
			C439.9,391,436.6,394.1,432.6,394.1z"/>
	</g>
	<g>
		<path class="st1" d="M432.6,352.3h-30.5c4,0,7.3,3.1,7.3,7v27.9c0,3.8-3.3,7-7.3,7h30.5c4,0,7.3-3.1,7.3-7v-27.9
			C439.9,355.4,436.6,352.3,432.6,352.3z"/>
	</g>
	<g>
		<path class="st2" d="M123.3,328.6h275.9v23.7H123.3V328.6z"/>
	</g>
	<g>
		<path class="st3" d="M365.8,328.6h33.4v23.7h-33.4V328.6z"/>
	</g>
	<g>
		<path class="st4" d="M152.4,305h217.8v23.7H152.4L152.4,305z"/>
	</g>
	<g>
		<path class="st5" d="M246.7,151.1h29v23h-29V151.1z"/>
	</g>
	<g>
		<path class="st2" d="M284.9,151.1h-47.2c-7,0-12.7-5.5-12.7-12.2s5.7-12.2,12.7-12.2h47.2c7,0,12.7,5.5,12.7,12.2
			C297.6,145.6,291.9,151.1,284.9,151.1L284.9,151.1z"/>
	</g>
	<g>
		<path class="st3" d="M284.9,126.7H266c7,0,12.7,5.5,12.7,12.2s-5.7,12.2-12.7,12.2h18.9c7,0,12.7-5.5,12.7-12.2
			S291.9,126.7,284.9,126.7z"/>
	</g>
	<g>
		<path class="st2" d="M123.3,305c0-73.1,61.8-132.3,138-132.3s138,59.2,138,132.3L123.3,305L123.3,305z"/>
	</g>
	<g>
		<path class="st3" d="M261.3,172.7c-5.9,0-11.7,0.4-17.4,1c68,8.2,120.5,63.8,120.5,131.3h34.9
			C399.2,231.9,337.4,172.7,261.3,172.7z"/>
	</g>
	<path d="M432.6,347.1h-28v-18.5c0-2.9-2.4-5.2-5.4-5.2h-23.7v-13.3h23.7c3,0,5.4-2.3,5.4-5.2c0-69.3-53.8-126.8-123.4-136.1v-12.6
		h3.7c10,0,18.1-7.8,18.1-17.4s-8.1-17.4-18.1-17.4h-47.2c-10,0-18.1,7.8-18.1,17.4s8.1,17.4,18.1,17.4h3.7v12.6
		c-69.6,9.3-123.4,66.8-123.4,136.1c0,2.9,2.4,5.2,5.4,5.2H147v13.3h-23.7c-3,0-5.4,2.3-5.4,5.2v18.5h-28c-7,0-12.7,5.4-12.7,12.1
		v27.9c0,6.7,5.7,12.1,12.7,12.1h342.7c7,0,12.7-5.4,12.7-12.1v-27.9C445.3,352.6,439.6,347.1,432.6,347.1L432.6,347.1z
		 M230.3,138.9c0-3.9,3.3-7,7.3-7h47.2c4,0,7.3,3.1,7.3,7c0,3.9-3.3,7-7.3,7h-47.2C233.6,145.9,230.3,142.7,230.3,138.9L230.3,138.9
		z M252.1,156.2h18.3v11.5c-3-0.2-6.1-0.3-9.1-0.3s-6.1,0.1-9.1,0.3V156.2z M128.7,333.8h45.6c3,0,5.4-2.3,5.4-5.2s-2.4-5.2-5.4-5.2
		h-16.5v-13.3h173.2c3,0,5.4-2.3,5.4-5.2s-2.4-5.2-5.4-5.2H128.8c2.8-67.7,61.2-122,132.5-122s129.6,54.3,132.5,122h-37.6
		c-3,0-5.4,2.3-5.4,5.2c0,2.9,2.4,5.2,5.4,5.2h8.7v13.3H199.5c-3,0-5.4,2.3-5.4,5.2c0,2.9,2.4,5.2,5.4,5.2h194.4v13.3H128.7V333.8z
		 M434.5,387.1c0,1-0.8,1.8-1.9,1.8H89.9c-1,0-1.9-0.8-1.9-1.8v-27.9c0-1,0.8-1.8,1.9-1.8h342.7c1,0,1.9,0.8,1.9,1.8L434.5,387.1
		L434.5,387.1z"/>
</g>
</svg>
